STARTFONT 2.1
FONT --G12~Ega~8X14-Regular-R-Normal--11-100-79-79-C-80-FONTSPECIFIC-0
SIZE 10 79 79
FONTBOUNDINGBOX 8 12 0 -2
METRICSSET 2
STARTPROPERTIES 20
FONT_ASCENT 9
FONT_DESCENT 2
PIXEL_SIZE 11
RESOLUTION_X 79
RESOLUTION_Y 79
POINT_SIZE 100
FACE_NAME "System"
FOUNDRY ""
FAMILY_NAME "G12-Ega-8X14"
WEIGHT_NAME "Regular"
RELATIVE_WEIGHT 50
SLANT "R"
SPACING "C"
SETWIDTH_NAME "Normal"
RELATIVE_SETWIDTH 50
ADD_STYLE_NAME ""
AVERAGE_WIDTH 80
CHARSET_REGISTRY "FONTSPECIFIC"
CHARSET_ENCODING "0"
GDOS "font-id=1 left-offset=1 right-offset=5"
ENDPROPERTIES
CHARS 128
STARTCHAR char00
ENCODING 0
SWIDTH 729 0
DWIDTH 8 0
BBX 8 14 0 -3
VVECTOR 4 11
SWIDTH1 0 -1276
DWIDTH1 0 -14
BITMAP 
00
00
00
00
00
00
00
00
00
00
00
00
00
00
ENDCHAR
STARTCHAR char01
ENCODING 1
SWIDTH 729 0
DWIDTH 8 0
BBX 8 14 0 -3
VVECTOR 4 11
SWIDTH1 0 -1276
DWIDTH1 0 -14
BITMAP 
00
00
08
1C
3E
7F
1C
1C
1C
1C
1C
1C
00
00
ENDCHAR
STARTCHAR char02
ENCODING 2
SWIDTH 729 0
DWIDTH 8 0
BBX 8 14 0 -3
VVECTOR 4 11
SWIDTH1 0 -1276
DWIDTH1 0 -14
BITMAP 
00
00
1C
1C
1C
1C
1C
1C
7F
3E
1C
08
00
00
ENDCHAR
STARTCHAR char03
ENCODING 3
SWIDTH 729 0
DWIDTH 8 0
BBX 8 14 0 -3
VVECTOR 4 11
SWIDTH1 0 -1276
DWIDTH1 0 -14
BITMAP 
00
00
10
18
1C
FE
FF
FE
1C
18
10
00
00
00
ENDCHAR
STARTCHAR char04
ENCODING 4
SWIDTH 729 0
DWIDTH 8 0
BBX 8 14 0 -3
VVECTOR 4 11
SWIDTH1 0 -1276
DWIDTH1 0 -14
BITMAP 
00
00
08
18
38
7F
FF
7F
38
18
08
00
00
00
ENDCHAR
STARTCHAR char05
ENCODING 5
SWIDTH 729 0
DWIDTH 8 0
BBX 8 14 0 -3
VVECTOR 4 11
SWIDTH1 0 -1276
DWIDTH1 0 -14
BITMAP 
00
00
FF
FF
FF
FF
FF
FF
FF
FF
FF
FF
00
00
ENDCHAR
STARTCHAR char06
ENCODING 6
SWIDTH 729 0
DWIDTH 8 0
BBX 8 14 0 -3
VVECTOR 4 11
SWIDTH1 0 -1276
DWIDTH1 0 -14
BITMAP 
00
00
F8
F8
F8
F8
F8
F8
F9
05
03
0F
00
00
ENDCHAR
STARTCHAR char07
ENCODING 7
SWIDTH 729 0
DWIDTH 8 0
BBX 8 14 0 -3
VVECTOR 4 11
SWIDTH1 0 -1276
DWIDTH1 0 -14
BITMAP 
00
00
00
10
38
7C
FE
7C
38
10
00
00
00
00
ENDCHAR
STARTCHAR char08
ENCODING 8
SWIDTH 729 0
DWIDTH 8 0
BBX 8 14 0 -3
VVECTOR 4 11
SWIDTH1 0 -1276
DWIDTH1 0 -14
BITMAP 
00
00
03
03
06
06
CC
CC
6C
38
18
00
00
00
ENDCHAR
STARTCHAR char09
ENCODING 9
SWIDTH 729 0
DWIDTH 8 0
BBX 8 14 0 -3
VVECTOR 4 11
SWIDTH1 0 -1276
DWIDTH1 0 -14
BITMAP 
00
00
00
00
3C
42
91
8F
81
42
3C
00
00
00
ENDCHAR
STARTCHAR char0A
ENCODING 10
SWIDTH 729 0
DWIDTH 8 0
BBX 8 14 0 -3
VVECTOR 4 11
SWIDTH1 0 -1276
DWIDTH1 0 -14
BITMAP 
00
00
00
18
24
42
42
42
42
FF
10
30
00
00
ENDCHAR
STARTCHAR char0B
ENCODING 11
SWIDTH 729 0
DWIDTH 8 0
BBX 8 14 0 -3
VVECTOR 4 11
SWIDTH1 0 -1276
DWIDTH1 0 -14
BITMAP 
00
00
00
0F
0E
08
08
08
08
78
F0
60
00
00
ENDCHAR
STARTCHAR char0C
ENCODING 12
SWIDTH 729 0
DWIDTH 8 0
BBX 8 14 0 -3
VVECTOR 4 11
SWIDTH1 0 -1276
DWIDTH1 0 -14
BITMAP 
00
00
3C
66
66
66
3C
18
7E
18
18
00
00
00
ENDCHAR
STARTCHAR char0D
ENCODING 13
SWIDTH 729 0
DWIDTH 8 0
BBX 8 14 0 -3
VVECTOR 4 11
SWIDTH1 0 -1276
DWIDTH1 0 -14
BITMAP 
00
00
3F
33
3F
30
30
30
70
F0
E0
00
00
00
ENDCHAR
STARTCHAR char0E
ENCODING 14
SWIDTH 729 0
DWIDTH 8 0
BBX 8 14 0 -3
VVECTOR 4 11
SWIDTH1 0 -1276
DWIDTH1 0 -14
BITMAP 
00
00
7F
63
7F
63
63
63
67
E7
E6
C0
00
00
ENDCHAR
STARTCHAR char0F
ENCODING 15
SWIDTH 729 0
DWIDTH 8 0
BBX 8 14 0 -3
VVECTOR 4 11
SWIDTH1 0 -1276
DWIDTH1 0 -14
BITMAP 
00
00
18
18
DB
3C
E7
3C
DB
18
18
00
00
00
ENDCHAR
STARTCHAR char10
ENCODING 16
SWIDTH 729 0
DWIDTH 8 0
BBX 8 14 0 -3
VVECTOR 4 11
SWIDTH1 0 -1276
DWIDTH1 0 -14
BITMAP 
00
00
40
60
70
7C
7F
7C
70
60
40
00
00
00
ENDCHAR
STARTCHAR char11
ENCODING 17
SWIDTH 729 0
DWIDTH 8 0
BBX 8 14 0 -3
VVECTOR 4 11
SWIDTH1 0 -1276
DWIDTH1 0 -14
BITMAP 
00
00
01
03
07
1F
7F
1F
07
03
01
00
00
00
ENDCHAR
STARTCHAR char12
ENCODING 18
SWIDTH 729 0
DWIDTH 8 0
BBX 8 14 0 -3
VVECTOR 4 11
SWIDTH1 0 -1276
DWIDTH1 0 -14
BITMAP 
00
00
18
3C
7E
18
18
18
7E
3C
18
00
00
00
ENDCHAR
STARTCHAR char13
ENCODING 19
SWIDTH 729 0
DWIDTH 8 0
BBX 8 14 0 -3
VVECTOR 4 11
SWIDTH1 0 -1276
DWIDTH1 0 -14
BITMAP 
00
00
33
33
33
33
33
33
00
33
33
00
00
00
ENDCHAR
STARTCHAR char14
ENCODING 20
SWIDTH 729 0
DWIDTH 8 0
BBX 8 14 0 -3
VVECTOR 4 11
SWIDTH1 0 -1276
DWIDTH1 0 -14
BITMAP 
00
00
7F
DB
DB
DB
5B
1B
1B
1B
1B
00
00
00
ENDCHAR
STARTCHAR char15
ENCODING 21
SWIDTH 729 0
DWIDTH 8 0
BBX 8 14 0 -3
VVECTOR 4 11
SWIDTH1 0 -1276
DWIDTH1 0 -14
BITMAP 
00
3E
63
30
1C
36
63
63
36
1C
06
63
3E
00
ENDCHAR
STARTCHAR char16
ENCODING 22
SWIDTH 729 0
DWIDTH 8 0
BBX 8 14 0 -3
VVECTOR 4 11
SWIDTH1 0 -1276
DWIDTH1 0 -14
BITMAP 
00
00
00
00
00
00
00
00
7F
7F
7F
00
00
00
ENDCHAR
STARTCHAR char17
ENCODING 23
SWIDTH 729 0
DWIDTH 8 0
BBX 8 14 0 -3
VVECTOR 4 11
SWIDTH1 0 -1276
DWIDTH1 0 -14
BITMAP 
00
00
18
3C
7E
18
18
18
7E
3C
18
7E
00
00
ENDCHAR
STARTCHAR char18
ENCODING 24
SWIDTH 729 0
DWIDTH 8 0
BBX 8 14 0 -3
VVECTOR 4 11
SWIDTH1 0 -1276
DWIDTH1 0 -14
BITMAP 
00
00
18
3C
7E
18
18
18
18
18
18
00
00
00
ENDCHAR
STARTCHAR char19
ENCODING 25
SWIDTH 729 0
DWIDTH 8 0
BBX 8 14 0 -3
VVECTOR 4 11
SWIDTH1 0 -1276
DWIDTH1 0 -14
BITMAP 
00
00
18
18
18
18
18
18
7E
3C
18
00
00
00
ENDCHAR
STARTCHAR char1A
ENCODING 26
SWIDTH 729 0
DWIDTH 8 0
BBX 8 14 0 -3
VVECTOR 4 11
SWIDTH1 0 -1276
DWIDTH1 0 -14
BITMAP 
00
00
00
00
0C
06
7F
06
0C
00
00
00
00
00
ENDCHAR
STARTCHAR char1B
ENCODING 27
SWIDTH 729 0
DWIDTH 8 0
BBX 8 14 0 -3
VVECTOR 4 11
SWIDTH1 0 -1276
DWIDTH1 0 -14
BITMAP 
00
00
00
00
18
30
7F
30
18
00
00
00
00
00
ENDCHAR
STARTCHAR char1C
ENCODING 28
SWIDTH 729 0
DWIDTH 8 0
BBX 8 14 0 -3
VVECTOR 4 11
SWIDTH1 0 -1276
DWIDTH1 0 -14
BITMAP 
00
00
00
00
00
60
60
60
7F
00
00
00
00
00
ENDCHAR
STARTCHAR char1D
ENCODING 29
SWIDTH 729 0
DWIDTH 8 0
BBX 8 14 0 -3
VVECTOR 4 11
SWIDTH1 0 -1276
DWIDTH1 0 -14
BITMAP 
00
00
00
00
24
66
FF
66
24
00
00
00
00
00
ENDCHAR
STARTCHAR char1E
ENCODING 30
SWIDTH 729 0
DWIDTH 8 0
BBX 8 14 0 -3
VVECTOR 4 11
SWIDTH1 0 -1276
DWIDTH1 0 -14
BITMAP 
00
00
00
00
00
18
3C
3C
7E
7E
00
00
00
00
ENDCHAR
STARTCHAR char1F
ENCODING 31
SWIDTH 729 0
DWIDTH 8 0
BBX 8 14 0 -3
VVECTOR 4 11
SWIDTH1 0 -1276
DWIDTH1 0 -14
BITMAP 
00
00
00
7E
7E
3C
3C
18
00
00
00
00
00
00
ENDCHAR
STARTCHAR char20
ENCODING 32
SWIDTH 729 0
DWIDTH 8 0
BBX 8 14 0 -3
VVECTOR 4 11
SWIDTH1 0 -1276
DWIDTH1 0 -14
BITMAP 
00
00
00
00
00
00
00
00
00
00
00
00
00
00
ENDCHAR
STARTCHAR char21
ENCODING 33
SWIDTH 729 0
DWIDTH 8 0
BBX 8 14 0 -3
VVECTOR 4 11
SWIDTH1 0 -1276
DWIDTH1 0 -14
BITMAP 
00
00
18
3C
3C
18
18
18
00
18
18
00
00
00
ENDCHAR
STARTCHAR char22
ENCODING 34
SWIDTH 729 0
DWIDTH 8 0
BBX 8 14 0 -3
VVECTOR 4 11
SWIDTH1 0 -1276
DWIDTH1 0 -14
BITMAP 
00
00
66
66
66
24
00
00
00
00
00
00
00
00
ENDCHAR
STARTCHAR char23
ENCODING 35
SWIDTH 729 0
DWIDTH 8 0
BBX 8 14 0 -3
VVECTOR 4 11
SWIDTH1 0 -1276
DWIDTH1 0 -14
BITMAP 
00
00
44
44
FE
44
44
FE
44
44
00
00
00
00
ENDCHAR
STARTCHAR char24
ENCODING 36
SWIDTH 729 0
DWIDTH 8 0
BBX 8 14 0 -3
VVECTOR 4 11
SWIDTH1 0 -1276
DWIDTH1 0 -14
BITMAP 
00
10
10
7C
D6
D0
7C
16
D6
7C
10
10
00
00
ENDCHAR
STARTCHAR char25
ENCODING 37
SWIDTH 729 0
DWIDTH 8 0
BBX 8 14 0 -3
VVECTOR 4 11
SWIDTH1 0 -1276
DWIDTH1 0 -14
BITMAP 
00
00
60
92
94
68
10
2C
52
92
0C
00
00
00
ENDCHAR
STARTCHAR char26
ENCODING 38
SWIDTH 729 0
DWIDTH 8 0
BBX 8 14 0 -3
VVECTOR 4 11
SWIDTH1 0 -1276
DWIDTH1 0 -14
BITMAP 
00
00
78
CC
CC
D8
70
DA
CC
CC
76
00
00
00
ENDCHAR
STARTCHAR char27
ENCODING 39
SWIDTH 729 0
DWIDTH 8 0
BBX 8 14 0 -3
VVECTOR 4 11
SWIDTH1 0 -1276
DWIDTH1 0 -14
BITMAP 
00
00
38
18
18
30
00
00
00
00
00
00
00
00
ENDCHAR
STARTCHAR char28
ENCODING 40
SWIDTH 729 0
DWIDTH 8 0
BBX 8 14 0 -3
VVECTOR 4 11
SWIDTH1 0 -1276
DWIDTH1 0 -14
BITMAP 
00
00
0C
18
30
30
30
30
30
30
18
0C
00
00
ENDCHAR
STARTCHAR char29
ENCODING 41
SWIDTH 729 0
DWIDTH 8 0
BBX 8 14 0 -3
VVECTOR 4 11
SWIDTH1 0 -1276
DWIDTH1 0 -14
BITMAP 
00
00
60
30
18
18
18
18
18
18
30
60
00
00
ENDCHAR
STARTCHAR char2A
ENCODING 42
SWIDTH 729 0
DWIDTH 8 0
BBX 8 14 0 -3
VVECTOR 4 11
SWIDTH1 0 -1276
DWIDTH1 0 -14
BITMAP 
00
00
00
00
6C
38
FE
38
6C
00
00
00
00
00
ENDCHAR
STARTCHAR char2B
ENCODING 43
SWIDTH 729 0
DWIDTH 8 0
BBX 8 14 0 -3
VVECTOR 4 11
SWIDTH1 0 -1276
DWIDTH1 0 -14
BITMAP 
00
00
00
00
18
18
7E
18
18
00
00
00
00
00
ENDCHAR
STARTCHAR char2C
ENCODING 44
SWIDTH 729 0
DWIDTH 8 0
BBX 8 14 0 -3
VVECTOR 4 11
SWIDTH1 0 -1276
DWIDTH1 0 -14
BITMAP 
00
00
00
00
00
00
00
00
00
38
18
18
30
00
ENDCHAR
STARTCHAR char2D
ENCODING 45
SWIDTH 729 0
DWIDTH 8 0
BBX 8 14 0 -3
VVECTOR 4 11
SWIDTH1 0 -1276
DWIDTH1 0 -14
BITMAP 
00
00
00
00
00
00
FE
00
00
00
00
00
00
00
ENDCHAR
STARTCHAR char2E
ENCODING 46
SWIDTH 729 0
DWIDTH 8 0
BBX 8 14 0 -3
VVECTOR 4 11
SWIDTH1 0 -1276
DWIDTH1 0 -14
BITMAP 
00
00
00
00
00
00
00
00
00
18
18
00
00
00
ENDCHAR
STARTCHAR char2F
ENCODING 47
SWIDTH 729 0
DWIDTH 8 0
BBX 8 14 0 -3
VVECTOR 4 11
SWIDTH1 0 -1276
DWIDTH1 0 -14
BITMAP 
00
06
04
0C
08
18
10
30
20
60
40
C0
00
00
ENDCHAR
STARTCHAR char30
ENCODING 48
SWIDTH 729 0
DWIDTH 8 0
BBX 8 14 0 -3
VVECTOR 4 11
SWIDTH1 0 -1276
DWIDTH1 0 -14
BITMAP 
00
00
7C
C6
C6
CE
D6
E6
C6
C6
7C
00
00
00
ENDCHAR
STARTCHAR char31
ENCODING 49
SWIDTH 729 0
DWIDTH 8 0
BBX 8 14 0 -3
VVECTOR 4 11
SWIDTH1 0 -1276
DWIDTH1 0 -14
BITMAP 
00
00
18
38
78
18
18
18
18
18
18
00
00
00
ENDCHAR
STARTCHAR char32
ENCODING 50
SWIDTH 729 0
DWIDTH 8 0
BBX 8 14 0 -3
VVECTOR 4 11
SWIDTH1 0 -1276
DWIDTH1 0 -14
BITMAP 
00
00
7C
C6
C6
06
1C
70
C0
C0
FE
00
00
00
ENDCHAR
STARTCHAR char33
ENCODING 51
SWIDTH 729 0
DWIDTH 8 0
BBX 8 14 0 -3
VVECTOR 4 11
SWIDTH1 0 -1276
DWIDTH1 0 -14
BITMAP 
00
00
7C
C6
06
06
3C
06
06
C6
7C
00
00
00
ENDCHAR
STARTCHAR char34
ENCODING 52
SWIDTH 729 0
DWIDTH 8 0
BBX 8 14 0 -3
VVECTOR 4 11
SWIDTH1 0 -1276
DWIDTH1 0 -14
BITMAP 
00
00
0C
1C
3C
6C
CC
CC
FE
0C
0C
00
00
00
ENDCHAR
STARTCHAR char35
ENCODING 53
SWIDTH 729 0
DWIDTH 8 0
BBX 8 14 0 -3
VVECTOR 4 11
SWIDTH1 0 -1276
DWIDTH1 0 -14
BITMAP 
00
00
FE
C0
C0
FC
06
06
C6
C6
7C
00
00
00
ENDCHAR
STARTCHAR char36
ENCODING 54
SWIDTH 729 0
DWIDTH 8 0
BBX 8 14 0 -3
VVECTOR 4 11
SWIDTH1 0 -1276
DWIDTH1 0 -14
BITMAP 
00
00
0C
18
30
60
FC
C6
C6
C6
7C
00
00
00
ENDCHAR
STARTCHAR char37
ENCODING 55
SWIDTH 729 0
DWIDTH 8 0
BBX 8 14 0 -3
VVECTOR 4 11
SWIDTH1 0 -1276
DWIDTH1 0 -14
BITMAP 
00
00
FE
06
06
0C
18
30
60
60
60
00
00
00
ENDCHAR
STARTCHAR char38
ENCODING 56
SWIDTH 729 0
DWIDTH 8 0
BBX 8 14 0 -3
VVECTOR 4 11
SWIDTH1 0 -1276
DWIDTH1 0 -14
BITMAP 
00
00
7C
C6
C6
C6
7C
C6
C6
C6
7C
00
00
00
ENDCHAR
STARTCHAR char39
ENCODING 57
SWIDTH 729 0
DWIDTH 8 0
BBX 8 14 0 -3
VVECTOR 4 11
SWIDTH1 0 -1276
DWIDTH1 0 -14
BITMAP 
00
00
7C
C6
C6
C6
7E
0C
18
30
60
00
00
00
ENDCHAR
STARTCHAR char3A
ENCODING 58
SWIDTH 729 0
DWIDTH 8 0
BBX 8 14 0 -3
VVECTOR 4 11
SWIDTH1 0 -1276
DWIDTH1 0 -14
BITMAP 
00
00
00
00
18
18
00
00
00
18
18
00
00
00
ENDCHAR
STARTCHAR char3B
ENCODING 59
SWIDTH 729 0
DWIDTH 8 0
BBX 8 14 0 -3
VVECTOR 4 11
SWIDTH1 0 -1276
DWIDTH1 0 -14
BITMAP 
00
00
00
00
18
18
00
00
00
38
18
18
30
00
ENDCHAR
STARTCHAR char3C
ENCODING 60
SWIDTH 729 0
DWIDTH 8 0
BBX 8 14 0 -3
VVECTOR 4 11
SWIDTH1 0 -1276
DWIDTH1 0 -14
BITMAP 
00
00
0C
18
30
60
C0
60
30
18
0C
00
00
00
ENDCHAR
STARTCHAR char3D
ENCODING 61
SWIDTH 729 0
DWIDTH 8 0
BBX 8 14 0 -3
VVECTOR 4 11
SWIDTH1 0 -1276
DWIDTH1 0 -14
BITMAP 
00
00
00
00
00
FE
00
FE
00
00
00
00
00
00
ENDCHAR
STARTCHAR char3E
ENCODING 62
SWIDTH 729 0
DWIDTH 8 0
BBX 8 14 0 -3
VVECTOR 4 11
SWIDTH1 0 -1276
DWIDTH1 0 -14
BITMAP 
00
00
60
30
18
0C
06
0C
18
30
60
00
00
00
ENDCHAR
STARTCHAR char3F
ENCODING 63
SWIDTH 729 0
DWIDTH 8 0
BBX 8 14 0 -3
VVECTOR 4 11
SWIDTH1 0 -1276
DWIDTH1 0 -14
BITMAP 
00
00
3C
66
66
0C
18
18
00
18
18
00
00
00
ENDCHAR
STARTCHAR char40
ENCODING 64
SWIDTH 729 0
DWIDTH 8 0
BBX 8 14 0 -3
VVECTOR 4 11
SWIDTH1 0 -1276
DWIDTH1 0 -14
BITMAP 
00
00
7C
86
9E
B6
B6
B6
9E
80
7C
00
00
00
ENDCHAR
STARTCHAR char41
ENCODING 65
SWIDTH 729 0
DWIDTH 8 0
BBX 8 14 0 -3
VVECTOR 4 11
SWIDTH1 0 -1276
DWIDTH1 0 -14
BITMAP 
00
00
38
6C
C6
C6
C6
FE
C6
C6
C6
00
00
00
ENDCHAR
STARTCHAR char42
ENCODING 66
SWIDTH 729 0
DWIDTH 8 0
BBX 8 14 0 -3
VVECTOR 4 11
SWIDTH1 0 -1276
DWIDTH1 0 -14
BITMAP 
00
00
FC
66
66
66
7C
66
66
66
FC
00
00
00
ENDCHAR
STARTCHAR char43
ENCODING 67
SWIDTH 729 0
DWIDTH 8 0
BBX 8 14 0 -3
VVECTOR 4 11
SWIDTH1 0 -1276
DWIDTH1 0 -14
BITMAP 
00
00
7C
C6
C6
C0
C0
C0
C6
C6
7C
00
00
00
ENDCHAR
STARTCHAR char44
ENCODING 68
SWIDTH 729 0
DWIDTH 8 0
BBX 8 14 0 -3
VVECTOR 4 11
SWIDTH1 0 -1276
DWIDTH1 0 -14
BITMAP 
00
00
F8
6C
66
66
66
66
66
6C
F8
00
00
00
ENDCHAR
STARTCHAR char45
ENCODING 69
SWIDTH 729 0
DWIDTH 8 0
BBX 8 14 0 -3
VVECTOR 4 11
SWIDTH1 0 -1276
DWIDTH1 0 -14
BITMAP 
00
00
7E
60
60
60
7C
60
60
60
7E
00
00
00
ENDCHAR
STARTCHAR char46
ENCODING 70
SWIDTH 729 0
DWIDTH 8 0
BBX 8 14 0 -3
VVECTOR 4 11
SWIDTH1 0 -1276
DWIDTH1 0 -14
BITMAP 
00
00
7E
60
60
60
7C
60
60
60
60
00
00
00
ENDCHAR
STARTCHAR char47
ENCODING 71
SWIDTH 729 0
DWIDTH 8 0
BBX 8 14 0 -3
VVECTOR 4 11
SWIDTH1 0 -1276
DWIDTH1 0 -14
BITMAP 
00
00
7C
C6
C0
C0
DE
C6
C6
C6
7A
00
00
00
ENDCHAR
STARTCHAR char48
ENCODING 72
SWIDTH 729 0
DWIDTH 8 0
BBX 8 14 0 -3
VVECTOR 4 11
SWIDTH1 0 -1276
DWIDTH1 0 -14
BITMAP 
00
00
C6
C6
C6
C6
FE
C6
C6
C6
C6
00
00
00
ENDCHAR
STARTCHAR char49
ENCODING 73
SWIDTH 729 0
DWIDTH 8 0
BBX 8 14 0 -3
VVECTOR 4 11
SWIDTH1 0 -1276
DWIDTH1 0 -14
BITMAP 
00
00
3C
18
18
18
18
18
18
18
3C
00
00
00
ENDCHAR
STARTCHAR char4A
ENCODING 74
SWIDTH 729 0
DWIDTH 8 0
BBX 8 14 0 -3
VVECTOR 4 11
SWIDTH1 0 -1276
DWIDTH1 0 -14
BITMAP 
00
00
06
06
06
06
06
C6
C6
C6
7C
00
00
00
ENDCHAR
STARTCHAR char4B
ENCODING 75
SWIDTH 729 0
DWIDTH 8 0
BBX 8 14 0 -3
VVECTOR 4 11
SWIDTH1 0 -1276
DWIDTH1 0 -14
BITMAP 
00
00
C6
C6
CC
D8
F0
D8
CC
C6
C6
00
00
00
ENDCHAR
STARTCHAR char4C
ENCODING 76
SWIDTH 729 0
DWIDTH 8 0
BBX 8 14 0 -3
VVECTOR 4 11
SWIDTH1 0 -1276
DWIDTH1 0 -14
BITMAP 
00
00
60
60
60
60
60
60
60
60
7E
00
00
00
ENDCHAR
STARTCHAR char4D
ENCODING 77
SWIDTH 729 0
DWIDTH 8 0
BBX 8 14 0 -3
VVECTOR 4 11
SWIDTH1 0 -1276
DWIDTH1 0 -14
BITMAP 
00
00
82
C6
EE
D6
D6
D6
C6
C6
C6
00
00
00
ENDCHAR
STARTCHAR char4E
ENCODING 78
SWIDTH 729 0
DWIDTH 8 0
BBX 8 14 0 -3
VVECTOR 4 11
SWIDTH1 0 -1276
DWIDTH1 0 -14
BITMAP 
00
00
C6
E6
F6
DE
CE
C6
C6
C6
C6
00
00
00
ENDCHAR
STARTCHAR char4F
ENCODING 79
SWIDTH 729 0
DWIDTH 8 0
BBX 8 14 0 -3
VVECTOR 4 11
SWIDTH1 0 -1276
DWIDTH1 0 -14
BITMAP 
00
00
7C
C6
C6
C6
C6
C6
C6
C6
7C
00
00
00
ENDCHAR
STARTCHAR char50
ENCODING 80
SWIDTH 729 0
DWIDTH 8 0
BBX 8 14 0 -3
VVECTOR 4 11
SWIDTH1 0 -1276
DWIDTH1 0 -14
BITMAP 
00
00
FC
C6
C6
C6
C6
FC
C0
C0
C0
00
00
00
ENDCHAR
STARTCHAR char51
ENCODING 81
SWIDTH 729 0
DWIDTH 8 0
BBX 8 14 0 -3
VVECTOR 4 11
SWIDTH1 0 -1276
DWIDTH1 0 -14
BITMAP 
00
00
7C
C6
C6
C6
C6
C6
F6
DC
7C
06
00
00
ENDCHAR
STARTCHAR char52
ENCODING 82
SWIDTH 729 0
DWIDTH 8 0
BBX 8 14 0 -3
VVECTOR 4 11
SWIDTH1 0 -1276
DWIDTH1 0 -14
BITMAP 
00
00
FC
C6
C6
C6
FC
D8
CC
CC
C6
00
00
00
ENDCHAR
STARTCHAR char53
ENCODING 83
SWIDTH 729 0
DWIDTH 8 0
BBX 8 14 0 -3
VVECTOR 4 11
SWIDTH1 0 -1276
DWIDTH1 0 -14
BITMAP 
00
00
7C
C6
C6
60
38
0C
C6
C6
7C
00
00
00
ENDCHAR
STARTCHAR char54
ENCODING 84
SWIDTH 729 0
DWIDTH 8 0
BBX 8 14 0 -3
VVECTOR 4 11
SWIDTH1 0 -1276
DWIDTH1 0 -14
BITMAP 
00
00
7E
18
18
18
18
18
18
18
18
00
00
00
ENDCHAR
STARTCHAR char55
ENCODING 85
SWIDTH 729 0
DWIDTH 8 0
BBX 8 14 0 -3
VVECTOR 4 11
SWIDTH1 0 -1276
DWIDTH1 0 -14
BITMAP 
00
00
C6
C6
C6
C6
C6
C6
C6
C6
7C
00
00
00
ENDCHAR
STARTCHAR char56
ENCODING 86
SWIDTH 729 0
DWIDTH 8 0
BBX 8 14 0 -3
VVECTOR 4 11
SWIDTH1 0 -1276
DWIDTH1 0 -14
BITMAP 
00
00
C6
C6
C6
C6
C6
C6
6C
38
10
00
00
00
ENDCHAR
STARTCHAR char57
ENCODING 87
SWIDTH 729 0
DWIDTH 8 0
BBX 8 14 0 -3
VVECTOR 4 11
SWIDTH1 0 -1276
DWIDTH1 0 -14
BITMAP 
00
00
C6
C6
D6
D6
D6
D6
6C
6C
44
00
00
00
ENDCHAR
STARTCHAR char58
ENCODING 88
SWIDTH 729 0
DWIDTH 8 0
BBX 8 14 0 -3
VVECTOR 4 11
SWIDTH1 0 -1276
DWIDTH1 0 -14
BITMAP 
00
00
C6
C6
C6
6C
38
6C
C6
C6
C6
00
00
00
ENDCHAR
STARTCHAR char59
ENCODING 89
SWIDTH 729 0
DWIDTH 8 0
BBX 8 14 0 -3
VVECTOR 4 11
SWIDTH1 0 -1276
DWIDTH1 0 -14
BITMAP 
00
00
C6
C6
C6
C6
6C
38
30
30
30
00
00
00
ENDCHAR
STARTCHAR char5A
ENCODING 90
SWIDTH 729 0
DWIDTH 8 0
BBX 8 14 0 -3
VVECTOR 4 11
SWIDTH1 0 -1276
DWIDTH1 0 -14
BITMAP 
00
00
FE
06
0C
18
30
60
C0
C0
FE
00
00
00
ENDCHAR
STARTCHAR char5B
ENCODING 91
SWIDTH 729 0
DWIDTH 8 0
BBX 8 14 0 -3
VVECTOR 4 11
SWIDTH1 0 -1276
DWIDTH1 0 -14
BITMAP 
00
00
3C
30
30
30
30
30
30
30
30
3C
00
00
ENDCHAR
STARTCHAR char5C
ENCODING 92
SWIDTH 729 0
DWIDTH 8 0
BBX 8 14 0 -3
VVECTOR 4 11
SWIDTH1 0 -1276
DWIDTH1 0 -14
BITMAP 
00
C0
40
60
20
30
10
18
08
0C
04
06
00
00
ENDCHAR
STARTCHAR char5D
ENCODING 93
SWIDTH 729 0
DWIDTH 8 0
BBX 8 14 0 -3
VVECTOR 4 11
SWIDTH1 0 -1276
DWIDTH1 0 -14
BITMAP 
00
00
78
18
18
18
18
18
18
18
18
78
00
00
ENDCHAR
STARTCHAR char5E
ENCODING 94
SWIDTH 729 0
DWIDTH 8 0
BBX 8 14 0 -3
VVECTOR 4 11
SWIDTH1 0 -1276
DWIDTH1 0 -14
BITMAP 
00
10
38
6C
C6
00
00
00
00
00
00
00
00
00
ENDCHAR
STARTCHAR char5F
ENCODING 95
SWIDTH 729 0
DWIDTH 8 0
BBX 8 14 0 -3
VVECTOR 4 11
SWIDTH1 0 -1276
DWIDTH1 0 -14
BITMAP 
00
00
00
00
00
00
00
00
00
00
00
00
FF
00
ENDCHAR
STARTCHAR char60
ENCODING 96
SWIDTH 729 0
DWIDTH 8 0
BBX 8 14 0 -3
VVECTOR 4 11
SWIDTH1 0 -1276
DWIDTH1 0 -14
BITMAP 
00
00
38
30
30
18
00
00
00
00
00
00
00
00
ENDCHAR
STARTCHAR char61
ENCODING 97
SWIDTH 729 0
DWIDTH 8 0
BBX 8 14 0 -3
VVECTOR 4 11
SWIDTH1 0 -1276
DWIDTH1 0 -14
BITMAP 
00
00
00
00
00
7C
06
7E
C6
C6
7E
00
00
00
ENDCHAR
STARTCHAR char62
ENCODING 98
SWIDTH 729 0
DWIDTH 8 0
BBX 8 14 0 -3
VVECTOR 4 11
SWIDTH1 0 -1276
DWIDTH1 0 -14
BITMAP 
00
00
C0
C0
C0
DC
E6
C6
C6
C6
FC
00
00
00
ENDCHAR
STARTCHAR char63
ENCODING 99
SWIDTH 729 0
DWIDTH 8 0
BBX 8 14 0 -3
VVECTOR 4 11
SWIDTH1 0 -1276
DWIDTH1 0 -14
BITMAP 
00
00
00
00
00
7C
C6
C0
C0
C6
7C
00
00
00
ENDCHAR
STARTCHAR char64
ENCODING 100
SWIDTH 729 0
DWIDTH 8 0
BBX 8 14 0 -3
VVECTOR 4 11
SWIDTH1 0 -1276
DWIDTH1 0 -14
BITMAP 
00
00
06
06
06
7E
C6
C6
C6
CE
76
00
00
00
ENDCHAR
STARTCHAR char65
ENCODING 101
SWIDTH 729 0
DWIDTH 8 0
BBX 8 14 0 -3
VVECTOR 4 11
SWIDTH1 0 -1276
DWIDTH1 0 -14
BITMAP 
00
00
00
00
00
7C
C6
FE
C0
C6
7C
00
00
00
ENDCHAR
STARTCHAR char66
ENCODING 102
SWIDTH 729 0
DWIDTH 8 0
BBX 8 14 0 -3
VVECTOR 4 11
SWIDTH1 0 -1276
DWIDTH1 0 -14
BITMAP 
00
00
1E
33
30
30
7E
30
30
30
30
00
00
00
ENDCHAR
STARTCHAR char67
ENCODING 103
SWIDTH 729 0
DWIDTH 8 0
BBX 8 14 0 -3
VVECTOR 4 11
SWIDTH1 0 -1276
DWIDTH1 0 -14
BITMAP 
00
00
00
00
00
7E
C6
C6
CE
76
06
C6
7C
00
ENDCHAR
STARTCHAR char68
ENCODING 104
SWIDTH 729 0
DWIDTH 8 0
BBX 8 14 0 -3
VVECTOR 4 11
SWIDTH1 0 -1276
DWIDTH1 0 -14
BITMAP 
00
00
C0
C0
C0
DC
E6
C6
C6
C6
C6
00
00
00
ENDCHAR
STARTCHAR char69
ENCODING 105
SWIDTH 729 0
DWIDTH 8 0
BBX 8 14 0 -3
VVECTOR 4 11
SWIDTH1 0 -1276
DWIDTH1 0 -14
BITMAP 
00
00
18
18
00
78
18
18
18
18
7E
00
00
00
ENDCHAR
STARTCHAR char6A
ENCODING 106
SWIDTH 729 0
DWIDTH 8 0
BBX 8 14 0 -3
VVECTOR 4 11
SWIDTH1 0 -1276
DWIDTH1 0 -14
BITMAP 
00
00
0C
0C
00
3C
0C
0C
0C
0C
0C
CC
78
00
ENDCHAR
STARTCHAR char6B
ENCODING 107
SWIDTH 729 0
DWIDTH 8 0
BBX 8 14 0 -3
VVECTOR 4 11
SWIDTH1 0 -1276
DWIDTH1 0 -14
BITMAP 
00
00
C0
C0
C0
C6
CC
D8
F8
CC
C6
00
00
00
ENDCHAR
STARTCHAR char6C
ENCODING 108
SWIDTH 729 0
DWIDTH 8 0
BBX 8 14 0 -3
VVECTOR 4 11
SWIDTH1 0 -1276
DWIDTH1 0 -14
BITMAP 
00
00
78
18
18
18
18
18
18
18
7E
00
00
00
ENDCHAR
STARTCHAR char6D
ENCODING 109
SWIDTH 729 0
DWIDTH 8 0
BBX 8 14 0 -3
VVECTOR 4 11
SWIDTH1 0 -1276
DWIDTH1 0 -14
BITMAP 
00
00
00
00
00
EC
D6
D6
D6
D6
C6
00
00
00
ENDCHAR
STARTCHAR char6E
ENCODING 110
SWIDTH 729 0
DWIDTH 8 0
BBX 8 14 0 -3
VVECTOR 4 11
SWIDTH1 0 -1276
DWIDTH1 0 -14
BITMAP 
00
00
00
00
00
DC
E6
C6
C6
C6
C6
00
00
00
ENDCHAR
STARTCHAR char6F
ENCODING 111
SWIDTH 729 0
DWIDTH 8 0
BBX 8 14 0 -3
VVECTOR 4 11
SWIDTH1 0 -1276
DWIDTH1 0 -14
BITMAP 
00
00
00
00
00
7C
C6
C6
C6
C6
7C
00
00
00
ENDCHAR
STARTCHAR char70
ENCODING 112
SWIDTH 729 0
DWIDTH 8 0
BBX 8 14 0 -3
VVECTOR 4 11
SWIDTH1 0 -1276
DWIDTH1 0 -14
BITMAP 
00
00
00
00
00
DC
E6
C6
C6
C6
FC
C0
C0
00
ENDCHAR
STARTCHAR char71
ENCODING 113
SWIDTH 729 0
DWIDTH 8 0
BBX 8 14 0 -3
VVECTOR 4 11
SWIDTH1 0 -1276
DWIDTH1 0 -14
BITMAP 
00
00
00
00
00
7E
C6
C6
C6
CE
76
06
06
00
ENDCHAR
STARTCHAR char72
ENCODING 114
SWIDTH 729 0
DWIDTH 8 0
BBX 8 14 0 -3
VVECTOR 4 11
SWIDTH1 0 -1276
DWIDTH1 0 -14
BITMAP 
00
00
00
00
00
DC
E6
C6
C0
C0
C0
00
00
00
ENDCHAR
STARTCHAR char73
ENCODING 115
SWIDTH 729 0
DWIDTH 8 0
BBX 8 14 0 -3
VVECTOR 4 11
SWIDTH1 0 -1276
DWIDTH1 0 -14
BITMAP 
00
00
00
00
00
7C
C6
70
1C
C6
7C
00
00
00
ENDCHAR
STARTCHAR char74
ENCODING 116
SWIDTH 729 0
DWIDTH 8 0
BBX 8 14 0 -3
VVECTOR 4 11
SWIDTH1 0 -1276
DWIDTH1 0 -14
BITMAP 
00
00
00
60
60
FC
60
60
60
66
3C
00
00
00
ENDCHAR
STARTCHAR char75
ENCODING 117
SWIDTH 729 0
DWIDTH 8 0
BBX 8 14 0 -3
VVECTOR 4 11
SWIDTH1 0 -1276
DWIDTH1 0 -14
BITMAP 
00
00
00
00
00
C6
C6
C6
C6
CE
76
00
00
00
ENDCHAR
STARTCHAR char76
ENCODING 118
SWIDTH 729 0
DWIDTH 8 0
BBX 8 14 0 -3
VVECTOR 4 11
SWIDTH1 0 -1276
DWIDTH1 0 -14
BITMAP 
00
00
00
00
00
C6
C6
C6
6C
38
10
00
00
00
ENDCHAR
STARTCHAR char77
ENCODING 119
SWIDTH 729 0
DWIDTH 8 0
BBX 8 14 0 -3
VVECTOR 4 11
SWIDTH1 0 -1276
DWIDTH1 0 -14
BITMAP 
00
00
00
00
00
C6
C6
D6
D6
6C
44
00
00
00
ENDCHAR
STARTCHAR char78
ENCODING 120
SWIDTH 729 0
DWIDTH 8 0
BBX 8 14 0 -3
VVECTOR 4 11
SWIDTH1 0 -1276
DWIDTH1 0 -14
BITMAP 
00
00
00
00
00
C6
6C
38
38
6C
C6
00
00
00
ENDCHAR
STARTCHAR char79
ENCODING 121
SWIDTH 729 0
DWIDTH 8 0
BBX 8 14 0 -3
VVECTOR 4 11
SWIDTH1 0 -1276
DWIDTH1 0 -14
BITMAP 
00
00
00
00
00
C6
C6
C6
6C
38
30
60
C0
00
ENDCHAR
STARTCHAR char7A
ENCODING 122
SWIDTH 729 0
DWIDTH 8 0
BBX 8 14 0 -3
VVECTOR 4 11
SWIDTH1 0 -1276
DWIDTH1 0 -14
BITMAP 
00
00
00
00
00
FE
0C
18
30
60
FE
00
00
00
ENDCHAR
STARTCHAR char7B
ENCODING 123
SWIDTH 729 0
DWIDTH 8 0
BBX 8 14 0 -3
VVECTOR 4 11
SWIDTH1 0 -1276
DWIDTH1 0 -14
BITMAP 
00
00
1C
30
30
30
E0
20
30
30
30
1C
00
00
ENDCHAR
STARTCHAR char7C
ENCODING 124
SWIDTH 729 0
DWIDTH 8 0
BBX 8 14 0 -3
VVECTOR 4 11
SWIDTH1 0 -1276
DWIDTH1 0 -14
BITMAP 
00
18
18
18
18
18
00
18
18
18
18
18
00
00
ENDCHAR
STARTCHAR char7D
ENCODING 125
SWIDTH 729 0
DWIDTH 8 0
BBX 8 14 0 -3
VVECTOR 4 11
SWIDTH1 0 -1276
DWIDTH1 0 -14
BITMAP 
00
00
70
18
18
18
0E
08
18
18
18
70
00
00
ENDCHAR
STARTCHAR char7E
ENCODING 126
SWIDTH 729 0
DWIDTH 8 0
BBX 8 14 0 -3
VVECTOR 4 11
SWIDTH1 0 -1276
DWIDTH1 0 -14
BITMAP 
00
00
76
DC
00
00
00
00
00
00
00
00
00
00
ENDCHAR
STARTCHAR char7F
ENCODING 127
SWIDTH 729 0
DWIDTH 8 0
BBX 8 14 0 -3
VVECTOR 4 11
SWIDTH1 0 -1276
DWIDTH1 0 -14
BITMAP 
00
00
10
38
6C
C6
C6
C6
C6
C6
FE
00
00
00
ENDCHAR
ENDFONT
